<?xml version="1.0" standalone="no"?>
<!DOCTYPE svg PUBLIC "-//W3C//DTD SVG 20010904//EN"
 "http://www.w3.org/TR/2001/REC-SVG-20010904/DTD/svg10.dtd">
<svg version="1.0" xmlns="http://www.w3.org/2000/svg"
 width="800.000000pt" height="600.000000pt" viewBox="0 0 800.000000 600.000000"
 preserveAspectRatio="xMidYMid meet">

<g transform="translate(0.000000,600.000000) scale(0.100000,-0.100000)"
fill="#ffffff" stroke="none">
<path d="M3591 5089 c-238 -25 -517 -106 -736 -214 -687 -337 -1148 -1000
-1225 -1764 -72 -722 238 -1463 805 -1920 447 -360 1035 -537 1596 -481 764
77 1427 538 1764 1225 413 840 243 1856 -420 2520 -466 466 -1131 702 -1784
634z m538 -54 c697 -101 1309 -543 1622 -1175 154 -310 223 -606 223 -960 0
-354 -69 -650 -223 -960 -315 -634 -918 -1070 -1626 -1176 -255 -38 -582 -20
-842 47 -757 193 -1359 795 -1552 1552 -88 345 -88 729 0 1074 206 807 881
1438 1694 1583 233 42 479 47 704 15z"/>
<path d="M3615 4909 c-442 -46 -883 -257 -1200 -574 -724 -724 -795 -1857
-167 -2664 419 -538 1104 -830 1783 -760 778 79 1444 606 1698 1342 252 732
66 1532 -484 2082 -424 424 -1029 637 -1630 574z m511 -54 c843 -127 1516
-801 1650 -1655 23 -142 23 -438 0 -580 -135 -857 -799 -1521 -1656 -1656
-142 -23 -438 -23 -580 0 -857 135 -1521 799 -1656 1656 -23 142 -23 438 0
580 124 786 697 1420 1461 1615 113 29 202 44 360 59 72 7 320 -4 421 -19z"/>
<path d="M4395 4176 c-61 -28 -120 -91 -136 -145 -7 -23 -10 -43 -7 -46 2 -3
27 2 55 10 82 24 183 129 183 189 0 23 -36 20 -95 -8z"/>
<path d="M4192 4105 c-88 -27 -157 -96 -182 -185 l-9 -33 34 6 c75 12 194 116
212 185 8 34 -6 42 -55 27z"/>
<path d="M4541 4108 c-45 -12 -134 -70 -155 -99 -15 -21 -15 -24 0 -32 10 -5
47 -10 84 -10 57 -1 79 5 134 32 76 37 138 101 109 113 -26 10 -133 8 -172 -4z"/>
<path d="M3378 4005 c-45 -11 -115 -52 -139 -82 -22 -25 7 -38 84 -38 80 1
150 29 197 80 21 22 22 28 10 35 -8 5 -26 10 -40 11 -14 1 -34 3 -45 4 -11 1
-42 -3 -67 -10z"/>
<path d="M3880 4002 c-29 -10 -65 -35 -102 -72 -47 -47 -64 -58 -100 -63 -43
-5 -43 -5 -19 11 42 29 121 109 121 122 0 10 -17 11 -70 8 -86 -6 -148 -41
-200 -111 -32 -43 -39 -47 -76 -47 -82 0 -228 31 -286 60 -67 34 -151 53 -131
29 6 -8 37 -27 67 -44 31 -16 56 -36 56 -43 0 -32 55 -125 93 -157 38 -33 111
-65 122 -53 11 11 -28 111 -57 143 -35 41 -34 47 6 37 22 -6 33 -18 47 -58 24
-65 97 -138 157 -159 59 -19 62 -19 62 6 0 50 -82 159 -131 174 -41 13 -16 25
52 25 38 0 68 4 65 8 -3 5 7 9 22 10 15 1 54 6 87 11 33 6 64 6 68 2 12 -12
99 5 144 27 45 23 133 114 133 137 0 20 -65 18 -130 -3z"/>
<path d="M4180 3930 l-45 -22 29 -23 c35 -28 97 -45 161 -45 51 0 148 37 142
54 -8 26 -83 51 -162 54 -65 2 -89 -1 -125 -18z"/>
<path d="M3985 3863 c-37 -9 -36 -20 5 -56 70 -60 213 -84 270 -46 12 8 9 15
-22 43 -60 52 -171 79 -253 59z"/>
<path d="M3765 3800 c-11 -18 53 -79 113 -106 54 -25 153 -33 180 -15 20 12
-48 78 -107 104 -55 24 -175 35 -186 17z"/>
<path d="M3544 3762 c46 -88 142 -152 229 -152 l48 0 -23 41 c-41 73 -126 127
-215 136 l-55 6 16 -31z"/>
<path d="M4365 3707 c-187 -182 -530 -242 -923 -161 l-33 7 28 -41 c15 -22 74
-100 130 -174 174 -231 239 -345 278 -492 25 -95 17 -254 -18 -347 -40 -106
-63 -143 -129 -211 -92 -94 -167 -139 -282 -172 -83 -24 -79 -14 5 12 142 45
289 171 352 302 50 107 61 164 54 289 -10 198 -80 331 -352 666 -27 34 -59 74
-70 89 -71 99 -81 107 -166 142 -46 19 -101 43 -121 53 -43 21 -42 22 -27 -51
26 -121 95 -227 265 -408 190 -202 261 -313 271 -429 11 -122 -41 -243 -154
-358 -90 -92 -195 -155 -438 -263 -45 -20 -186 -89 -193 -95 -9 -7 170 -129
267 -182 108 -58 287 -126 370 -139 35 -6 39 -3 63 34 48 71 146 138 243 165
65 18 141 13 354 -24 181 -32 238 -32 309 -3 69 28 127 91 140 151 8 33 5 55
-15 114 -13 42 -21 86 -18 102 2 16 25 52 50 80 54 62 56 87 13 121 -18 14
-30 26 -28 28 75 55 80 60 80 88 0 16 -11 41 -24 57 -35 42 -46 68 -46 106 0
43 26 77 98 126 83 56 106 84 98 116 -8 30 -22 44 -149 152 -178 150 -244 254
-207 323 5 10 46 42 90 71 44 28 80 54 80 56 0 3 -10 -1 -22 -9 -13 -8 -32
-18 -42 -21 -21 -8 -19 -5 28 53 21 25 21 25 -9 -1 -42 -37 -116 -89 -127 -89
-4 0 -8 47 -8 104 0 58 -3 106 -7 108 -5 2 -30 -19 -58 -45z m-1045 -1611 c0
-2 -7 -7 -16 -10 -8 -3 -12 -2 -9 4 6 10 25 14 25 6z"/>
</g>
</svg>
